<svg xmlns="http://www.w3.org/2000/svg" xmlns:xlink="http://www.w3.org/1999/xlink" version="1.1" x="0px" y="0px" viewBox="0 0 100 100" style="enable-background:new 0 0 100 100;" xml:space="preserve"><g><path d="M54.9,29c0.5,0,1-0.4,1-1c0-0.5-0.4-1-1-1H47c-0.5,0-1,0.4-1,1c0,0.5,0.4,1,1,1H54.9z"/><path d="M25.3,29h18.3c0.5,0,1-0.4,1-1c0-0.5-0.4-1-1-1H25.3c-0.5,0-1,0.4-1,1C24.3,28.5,24.7,29,25.3,29z"/><path d="M37.1,21.7h28.7c0.5,0,1-0.4,1-1c0-0.5-0.4-1-1-1H37.1c-0.5,0-1,0.4-1,1C36.1,21.3,36.6,21.7,37.1,21.7z"/><path d="M25.3,21.7h9.1c0.5,0,1-0.4,1-1c0-0.5-0.4-1-1-1h-9.1c-0.5,0-1,0.4-1,1C24.3,21.3,24.7,21.7,25.3,21.7z"/><path d="M55.9,42.5c0-0.5-0.4-1-1-1h-5.6c-0.5,0-1,0.4-1,1s0.4,1,1,1h5.6C55.4,43.4,55.9,43,55.9,42.5z"/><path d="M46.5,41.5H25.3c-0.5,0-1,0.4-1,1s0.4,1,1,1h21.2c0.5,0,1-0.4,1-1S47,41.5,46.5,41.5z"/><path d="M65.8,34.2h-25c-0.5,0-1,0.4-1,1s0.4,1,1,1h25c0.5,0,1-0.4,1-1S66.3,34.2,65.8,34.2z"/><path d="M25.3,36.2h12.6c0.5,0,1-0.4,1-1s-0.4-1-1-1H25.3c-0.5,0-1,0.4-1,1S24.7,36.2,25.3,36.2z"/><path d="M75,49.1V13.5C75,11,73,9,70.5,9H17h-4.7h0c-2.5,0-4.5,2-4.5,4.5v5.5C6.2,19.5,5,21,5,22.8v0.5c0,1.8,1.2,3.3,2.9,3.7v19   C6.2,46.5,5,48,5,49.8v0.5C5,52,6.2,53.5,7.9,54v19c-1.6,0.5-2.9,2-2.9,3.7v0.5c0,1.8,1.2,3.3,2.9,3.7v5.5c0,2.5,2,4.5,4.5,4.5h0   H17h57c11.6,0,21-9.4,21-21C95,58.8,86.1,49.6,75,49.1z M7,23.3v-0.5c0-1,0.9-1.9,1.9-1.9h0H12v4.4H8.8C7.8,25.2,7,24.3,7,23.3z    M7,50.2v-0.5c0-1,0.9-1.9,1.9-1.9h0H12v4.4H8.8C7.8,52.2,7,51.3,7,50.2z M7,77.2v-0.5c0-1,0.9-1.9,1.9-1.9h0H12v4.4H8.8   C7.8,79.1,7,78.3,7,77.2z M12.4,89c-1.4,0-2.5-1.1-2.5-2.5v-5.4H12v1.6c0,0.5,0.4,1,1,1c0.5,0,1-0.4,1-1v-2.5c0,0,0,0,0,0v-6.3   c0,0,0,0,0,0v-2.5c0-0.5-0.4-1-1-1c-0.5,0-1,0.4-1,1v1.6H9.8V54.1H12v1.6c0,0.5,0.4,1,1,1c0.5,0,1-0.4,1-1v-2.5c0,0,0,0,0,0v-6.3   c0,0,0,0,0,0v-2.5c0-0.5-0.4-1-1-1c-0.5,0-1,0.4-1,1v1.6H9.8V27.2H12v1.6c0,0.5,0.4,1,1,1c0.5,0,1-0.4,1-1v-2.5c0,0,0,0,0,0v-6.3   c0,0,0,0,0,0v-2.5c0-0.5-0.4-1-1-1c-0.5,0-1,0.4-1,1v1.6H9.8v-5.4c0-1.4,1.1-2.5,2.5-2.5H16v78H12.4z M18,89V11h52.5   c1.4,0,2.5,1.1,2.5,2.5v35.6C61.9,49.6,53,58.8,53,70c0,8.4,5,15.7,12.2,19H18z M74,89c-10.5,0-19-8.5-19-19s8.5-19,19-19   s19,8.5,19,19S84.5,89,74,89z"/><path d="M83.2,65.5h-4c-0.4,0-0.7-0.3-0.7-0.7v-4c0-2.5-2-4.5-4.5-4.5s-4.5,2-4.5,4.5v4c0,0.4-0.3,0.7-0.7,0.7h-4   c-2.5,0-4.5,2-4.5,4.5c0,2.5,2,4.5,4.5,4.5h4c0.4,0,0.7,0.3,0.7,0.7v4c0,2.5,2,4.5,4.5,4.5s4.5-2,4.5-4.5v-4c0-0.4,0.3-0.7,0.7-0.7   h4c2.5,0,4.5-2,4.5-4.5C87.7,67.5,85.7,65.5,83.2,65.5z M83.2,72.6h-4c-1.5,0-2.6,1.2-2.6,2.6v4c0,1.4-1.2,2.6-2.6,2.6   s-2.6-1.2-2.6-2.6v-4c0-1.5-1.2-2.6-2.6-2.6h-4c-1.4,0-2.6-1.2-2.6-2.6c0-1.4,1.2-2.6,2.6-2.6h4c1.5,0,2.6-1.2,2.6-2.6v-4   c0-1.4,1.2-2.6,2.6-2.6s2.6,1.2,2.6,2.6v4c0,1.5,1.2,2.6,2.6,2.6h4c1.4,0,2.6,1.2,2.6,2.6C85.8,71.4,84.6,72.6,83.2,72.6z"/></g></svg>