<svg xmlns="http://www.w3.org/2000/svg" xmlns:xlink="http://www.w3.org/1999/xlink" version="1.1" x="0px" y="0px" viewBox="0 0 100 100" enable-background="new 0 0 100 100" xml:space="preserve"><g><path d="M58.1,87.4H16c-1.4,0-2.5-1.1-2.5-2.4V23c0-1.3,1.1-2.4,2.5-2.4h42.1c1.4,0,2.5,1.1,2.5,2.4v21.6h2.6V23c0-2.8-2.3-5-5.1-5   H41.1c0.6-0.8,1-1.8,1-3c0-2.8-2.3-5.1-5.1-5.1S32,12.3,32,15.1c0,1.1,0.4,2.1,1,3H16c-2.8,0-5.1,2.3-5.1,5v61.9c0,2.8,2.3,5,5.1,5   h42.1c2.7,0,5.7-2.2,5.7-5h-2.6C61.2,86.1,59.6,87.4,58.1,87.4z M37,12.6c1.4,0,2.5,1.1,2.5,2.5s-1.1,2.5-2.5,2.5   c-1.4,0-2.5-1.1-2.5-2.5S35.7,12.6,37,12.6z"/><rect x="20" y="30.4" width="5.2" height="2.6"/><rect x="20" y="40.8" width="5.2" height="2.6"/><rect x="20" y="51.2" width="5.2" height="2.6"/><rect x="20" y="61.6" width="5.2" height="2.6"/><rect x="20" y="72" width="5.2" height="2.6"/><rect x="30.4" y="30.4" width="23.3" height="2.6"/><polygon points="73.5,58.9 70.9,58.9 70.9,64.3 65.5,64.3 65.5,66.8 70.9,66.8 70.9,72.3 73.5,72.3 73.5,66.8 78.9,66.8 78.9,64.3    73.5,64.3  "/><rect x="30.4" y="40.8" width="23.3" height="2.6"/><rect x="30.4" y="51.2" width="21" height="2.6"/><rect x="30.4" y="61.6" width="15.8" height="2.6"/><rect x="30.4" y="72" width="15.6" height="2.6"/><path d="M72.2,48.5c-9.3,0-16.9,7.6-16.9,16.9s7.6,16.9,16.9,16.9c9.3,0,16.9-7.6,16.9-16.9S81.5,48.5,72.2,48.5z M72.2,79.7   c-7.9,0-14.3-6.4-14.3-14.3s6.4-14.3,14.3-14.3s14.3,6.4,14.3,14.3S80.1,79.7,72.2,79.7z"/></g></svg>